<?xml version="1.0" encoding="UTF-8"?>
<svg version="1.1" xmlns="http://www.w3.org/2000/svg" width="89" height="71">
<path d="M0 0 C29.37 0 58.74 0 89 0 C89 23.43 89 46.86 89 71 C59.63 71 30.26 71 0 71 C0 47.57 0 24.14 0 0 Z " fill="#FEFEFE" transform="translate(0,0)"/>
<path d="M0 0 C4.11263899 2.76502225 6.28814672 5.68136323 8.69921875 9.97265625 C9.35083984 11.11927734 10.00246094 12.26589844 10.67382812 13.44726562 C11.34539203 14.65215434 12.01661258 15.85723448 12.6875 17.0625 C13.36947201 18.2720322 14.05240634 19.48102235 14.73632812 20.68945312 C15.98774805 22.90216279 17.23458005 25.11747792 18.4753418 27.33618164 C19.57993926 29.26608762 20.76653426 31.14980139 22 33 C22.56551375 37.36253463 22.49322651 39.29752588 19.9375 42.9375 C17 45 17 45 13.5 45.6875 C9.79529762 44.9597906 8.51924502 44.15527137 6.32421875 41.12890625 C3.9548879 37.31980504 1.72665252 33.43407649 -0.44921875 29.51171875 C-1.75574538 26.90291476 -1.75574538 26.90291476 -4 26 C-4.38865234 27.04607422 -4.38865234 27.04607422 -4.78515625 28.11328125 C-6.12366555 31.29385479 -7.71166233 34.19975951 -9.4375 37.1875 C-10.03433594 38.23292969 -10.63117187 39.27835938 -11.24609375 40.35546875 C-13 43 -13 43 -16 45 C-19.84765451 45.41974413 -22.09631706 45.59452825 -25.375 43.4375 C-27.66361991 40.00457014 -28.13444277 38.1677258 -28 34 C-26.890625 31.81860352 -26.890625 31.81860352 -25.375 29.44140625 C-23.13653111 25.84826524 -20.98164325 22.2383313 -18.9296875 18.53515625 C-18.42566406 17.63345703 -17.92164063 16.73175781 -17.40234375 15.80273438 C-16.3706297 13.95171799 -15.3447252 12.09745329 -14.32421875 10.24023438 C-13.82277344 9.34755859 -13.32132813 8.45488281 -12.8046875 7.53515625 C-12.13928955 6.33451538 -12.13928955 6.33451538 -11.46044922 5.10961914 C-8.35081688 0.61775471 -5.43495305 -0.77642186 0 0 Z " fill="#1ECFA4" transform="translate(46,11)"/>
<path d="M0 0 C0.43481689 0.87640137 0.43481689 0.87640137 0.87841797 1.77050781 C1.8755839 3.75268442 2.89944731 5.71509497 3.9453125 7.671875 C4.29980469 8.33574219 4.65429688 8.99960937 5.01953125 9.68359375 C5.38433594 10.36550781 5.74914062 11.04742187 6.125 11.75 C6.49753906 12.44738281 6.87007812 13.14476562 7.25390625 13.86328125 C8.16879908 15.57577295 9.08433569 17.28792068 10 19 C9.34 19 8.68 19 8 19 C7.61134766 20.04607422 7.61134766 20.04607422 7.21484375 21.11328125 C5.87633445 24.29385479 4.28833767 27.19975951 2.5625 30.1875 C1.96566406 31.23292969 1.36882813 32.27835938 0.75390625 33.35546875 C-1 36 -1 36 -4 38 C-7.84765451 38.41974413 -10.09631706 38.59452825 -13.375 36.4375 C-15.66361991 33.00457014 -16.13444277 31.1677258 -16 27 C-14.88983848 24.52884548 -13.52268514 22.37407619 -12.03515625 20.109375 C-9.4196282 16.11328992 -7.03016772 11.99997586 -4.625 7.875 C-3.74264643 6.3721263 -2.85986896 4.86950134 -1.9765625 3.3671875 C-1.32429688 2.25601562 -0.67203125 1.14484375 0 0 Z " fill="#D9DDDE" transform="translate(34,18)"/>
<path d="M0 0 C2.12890625 0.4140625 2.12890625 0.4140625 4.69140625 1.9765625 C6.71816083 5.41323331 6.74877385 7.48823436 6.12890625 11.4140625 C4.06640625 14.3515625 4.06640625 14.3515625 1.12890625 16.4140625 C-2.83585781 17.04007788 -4.86871396 17.07352289 -8.24609375 14.8515625 C-10.4233566 11.58566822 -10.87109375 9.33422384 -10.87109375 5.4140625 C-8.41856616 0.17457174 -5.37682134 -0.33660496 0 0 Z " fill="#1FD0A2" transform="translate(28.87109375,39.5859375)"/>
<path d="M0 0 C0 0.33 0 0.66 0 1 C-0.94875 1.28875 -1.8975 1.5775 -2.875 1.875 C-6.05211578 2.76825109 -6.05211578 2.76825109 -8 5 C-8.39764263 6.98821313 -8.73775349 8.98944339 -9 11 C-9.66 10.67 -10.32 10.34 -11 10 C-10.40550688 3.69837297 -10.40550688 3.69837297 -8.875 1.0625 C-5.96905769 -0.58420065 -3.26178195 -0.18462917 0 0 Z " fill="#26CDB4" transform="translate(29,40)"/>
</svg>
